<svg width="247" height="51" xmlns="http://www.w3.org/2000/svg"><defs><linearGradient x1="50%" y1="0%" x2="50%" y2="100%" id="a"><stop stop-color="#E3005C" offset="0%"/><stop stop-color="#C3002F" offset="100%"/></linearGradient><linearGradient x1="42.443%" y1="121.561%" x2="57.523%" y2="8.499%" id="b"><stop stop-color="#201C38" offset="0%"/><stop stop-color="#3E396B" offset="100%"/></linearGradient></defs><g fill="none" fill-rule="evenodd"><path d="M27.437 22.289c1.264 0 2.465-.252 3.666-.63l2.023 3.463 1.391 2.393c.38.692 1.075 1.07 1.834 1.07.379 0 .695-.063 1.074-.252 1.012-.566 1.328-1.889.759-2.896l-1.39-2.393-2.024-3.525c2.34-2.015 3.856-5.038 3.856-8.375C38.626 5.037 33.632.063 27.5.063S16.31 5.037 16.31 11.207 21.305 22.29 27.437 22.29v-.001zm0-18.008c3.793 0 6.89 3.086 6.89 6.863 0 3.778-3.097 6.863-6.89 6.863-3.793 0-6.891-3.085-6.891-6.863 0-3.777 3.098-6.863 6.89-6.863h.001z" fill="url(#a)" fill-rule="nonzero"/><path d="M43.81 28.207c-5.436 0-9.925 3.904-10.936 9.004h-6.765c-1.138 0-2.086.945-2.086 2.078s.948 2.078 2.086 2.078h6.765c1.011 5.1 5.5 9.003 10.936 9.003 6.133 0 11.127-4.974 11.127-11.081 0-6.108-4.994-11.082-11.127-11.082zm0 18.008c-3.793 0-6.89-3.085-6.89-6.863 0-3.778 3.097-6.863 6.89-6.863 3.793 0 6.891 3.085 6.891 6.863 0 3.778-3.098 6.863-6.89 6.863h-.001zM18.46 30.978c2.339 2.015 3.856 4.974 3.793 8.374 0 6.107-4.994 11.081-11.127 11.081C4.994 50.433 0 45.523 0 39.352c0-6.17 4.994-11.145 11.126-11.145 1.328 0 2.53.252 3.667.63l2.023-3.463 1.39-2.393a2.162 2.162 0 0 1 2.909-.755c1.011.63 1.328 1.889.759 2.896l-1.391 2.393-2.023 3.463zm-7.334 15.237c3.857 0 6.954-3.085 6.891-6.863 0-3.778-3.097-6.863-6.89-6.863-3.794 0-6.891 3.085-6.891 6.863 0 3.778 3.097 6.863 6.89 6.863z" fill="url(#b)" fill-rule="nonzero"/><path d="M81.52 6.2h2.4V23h-2.4V6.2zm13.896 3.96c1.616 0 2.9.468 3.852 1.404.952.936 1.428 2.308 1.428 4.116V23h-2.304v-7.056c0-1.232-.296-2.16-.888-2.784-.592-.624-1.44-.936-2.544-.936-1.248 0-2.232.364-2.952 1.092-.72.728-1.08 1.772-1.08 3.132V23h-2.304V10.28h2.208v1.92c.464-.656 1.092-1.16 1.884-1.512.792-.352 1.692-.528 2.7-.528zm13.2 12.984c-1.04 0-2.04-.14-3-.42-.96-.28-1.712-.636-2.256-1.068l.96-1.824c.56.4 1.24.72 2.04.96s1.608.36 2.424.36c2.016 0 3.024-.576 3.024-1.728 0-.384-.136-.688-.408-.912a2.583 2.583 0 0 0-1.02-.492 23.4 23.4 0 0 0-1.74-.348c-1.024-.16-1.86-.344-2.508-.552a3.865 3.865 0 0 1-1.668-1.056c-.464-.496-.696-1.192-.696-2.088 0-1.152.48-2.076 1.44-2.772.96-.696 2.248-1.044 3.864-1.044.848 0 1.696.104 2.544.312.848.208 1.544.488 2.088.84l-.984 1.824c-1.04-.672-2.264-1.008-3.672-1.008-.976 0-1.72.16-2.232.48-.512.32-.768.744-.768 1.272 0 .416.144.744.432.984.288.24.644.416 1.068.528.424.112 1.02.24 1.788.384 1.024.176 1.852.364 2.484.564.632.2 1.172.54 1.62 1.02.448.48.672 1.152.672 2.016 0 1.152-.492 2.068-1.476 2.748-.984.68-2.324 1.02-4.02 1.02zm15.528-.888a3.437 3.437 0 0 1-1.248.66 5.213 5.213 0 0 1-1.536.228c-1.28 0-2.272-.344-2.976-1.032-.704-.688-1.056-1.672-1.056-2.952v-6.984h-2.16V10.28h2.16V7.496h2.304v2.784h3.648v1.896h-3.648v6.888c0 .688.172 1.216.516 1.584.344.368.836.552 1.476.552.704 0 1.304-.2 1.8-.6l.72 1.656zm7.416-12.096c1.76 0 3.108.432 4.044 1.296.936.864 1.404 2.152 1.404 3.864V23h-2.184v-1.68c-.384.592-.932 1.044-1.644 1.356-.712.312-1.556.468-2.532.468-1.424 0-2.564-.344-3.42-1.032-.856-.688-1.284-1.592-1.284-2.712s.408-2.02 1.224-2.7c.816-.68 2.112-1.02 3.888-1.02h3.648v-.456c0-.992-.288-1.752-.864-2.28-.576-.528-1.424-.792-2.544-.792-.752 0-1.488.124-2.208.372-.72.248-1.328.58-1.824.996l-.96-1.728c.656-.528 1.44-.932 2.352-1.212.912-.28 1.88-.42 2.904-.42zm-.528 11.208c.88 0 1.64-.196 2.28-.588a3.365 3.365 0 0 0 1.392-1.668v-1.776h-3.552c-1.952 0-2.928.656-2.928 1.968 0 .64.248 1.144.744 1.512.496.368 1.184.552 2.064.552zm17.04-11.208c1.616 0 2.9.468 3.852 1.404.952.936 1.428 2.308 1.428 4.116V23h-2.304v-7.056c0-1.232-.296-2.16-.888-2.784-.592-.624-1.44-.936-2.544-.936-1.248 0-2.232.364-2.952 1.092-.72.728-1.08 1.772-1.08 3.132V23h-2.304V10.28h2.208v1.92c.464-.656 1.092-1.16 1.884-1.512.792-.352 1.692-.528 2.7-.528zm16.704 12.096a3.437 3.437 0 0 1-1.248.66 5.213 5.213 0 0 1-1.536.228c-1.28 0-2.272-.344-2.976-1.032-.704-.688-1.056-1.672-1.056-2.952v-6.984h-2.16V10.28h2.16V7.496h2.304v2.784h3.648v1.896h-3.648v6.888c0 .688.172 1.216.516 1.584.344.368.836.552 1.476.552.704 0 1.304-.2 1.8-.6l.72 1.656zm8.016.936c-1.264 0-2.484-.196-3.66-.588-1.176-.392-2.1-.9-2.772-1.524l.888-1.872c.64.576 1.46 1.044 2.46 1.404 1 .36 2.028.54 3.084.54 1.392 0 2.432-.236 3.12-.708.688-.472 1.032-1.1 1.032-1.884 0-.576-.188-1.044-.564-1.404a3.772 3.772 0 0 0-1.392-.828c-.552-.192-1.332-.408-2.34-.648-1.264-.304-2.284-.608-3.06-.912a5.06 5.06 0 0 1-1.992-1.404c-.552-.632-.828-1.484-.828-2.556 0-.896.236-1.704.708-2.424s1.188-1.296 2.148-1.728c.96-.432 2.152-.648 3.576-.648.992 0 1.968.128 2.928.384s1.784.624 2.472 1.104l-.792 1.92a8.689 8.689 0 0 0-2.256-1.02 8.42 8.42 0 0 0-2.352-.348c-1.36 0-2.38.248-3.06.744-.68.496-1.02 1.136-1.02 1.92 0 .576.192 1.044.576 1.404.384.36.86.64 1.428.84.568.2 1.34.412 2.316.636 1.264.304 2.28.608 3.048.912a5.131 5.131 0 0 1 1.98 1.392c.552.624.828 1.464.828 2.52 0 .88-.24 1.684-.72 2.412s-1.208 1.304-2.184 1.728c-.976.424-2.176.636-3.6.636zm21.168-6.48c0 .176-.016.408-.048.696h-10.32c.144 1.12.636 2.02 1.476 2.7.84.68 1.884 1.02 3.132 1.02 1.52 0 2.744-.512 3.672-1.536l1.272 1.488a5.571 5.571 0 0 1-2.148 1.536c-.856.352-1.812.528-2.868.528-1.344 0-2.536-.276-3.576-.828A5.905 5.905 0 0 1 182.14 20c-.568-.992-.852-2.112-.852-3.36 0-1.232.276-2.344.828-3.336a5.931 5.931 0 0 1 2.28-2.316c.968-.552 2.06-.828 3.276-.828 1.216 0 2.3.276 3.252.828a5.815 5.815 0 0 1 2.232 2.316c.536.992.804 2.128.804 3.408zm-6.288-4.608c-1.104 0-2.028.336-2.772 1.008-.744.672-1.18 1.552-1.308 2.64h8.16c-.128-1.072-.564-1.948-1.308-2.628-.744-.68-1.668-1.02-2.772-1.02zm13.752-1.944c1.76 0 3.108.432 4.044 1.296.936.864 1.404 2.152 1.404 3.864V23h-2.184v-1.68c-.384.592-.932 1.044-1.644 1.356-.712.312-1.556.468-2.532.468-1.424 0-2.564-.344-3.42-1.032-.856-.688-1.284-1.592-1.284-2.712s.408-2.02 1.224-2.7c.816-.68 2.112-1.02 3.888-1.02h3.648v-.456c0-.992-.288-1.752-.864-2.28-.576-.528-1.424-.792-2.544-.792-.752 0-1.488.124-2.208.372-.72.248-1.328.58-1.824.996l-.96-1.728c.656-.528 1.44-.932 2.352-1.212.912-.28 1.88-.42 2.904-.42zm-.528 11.208c.88 0 1.64-.196 2.28-.588a3.365 3.365 0 0 0 1.392-1.668v-1.776h-3.552c-1.952 0-2.928.656-2.928 1.968 0 .64.248 1.144.744 1.512.496.368 1.184.552 2.064.552zm12.456-8.952c.4-.736.992-1.296 1.776-1.68.784-.384 1.736-.576 2.856-.576v2.232a4.498 4.498 0 0 0-.528-.024c-1.248 0-2.228.372-2.94 1.116-.712.744-1.068 1.804-1.068 3.18V23h-2.304V10.28h2.208v2.136zm12.888 10.728c-1.296 0-2.452-.28-3.468-.84a6.155 6.155 0 0 1-2.388-2.316c-.576-.984-.864-2.1-.864-3.348 0-1.248.288-2.364.864-3.348a6.07 6.07 0 0 1 2.388-2.304c1.016-.552 2.172-.828 3.468-.828 1.152 0 2.18.232 3.084.696a4.957 4.957 0 0 1 2.1 2.016L229.672 14c-.4-.608-.896-1.064-1.488-1.368a4.244 4.244 0 0 0-1.968-.456c-.832 0-1.58.184-2.244.552a3.934 3.934 0 0 0-1.56 1.572c-.376.68-.564 1.46-.564 2.34 0 .896.188 1.684.564 2.364.376.68.896 1.204 1.56 1.572.664.368 1.412.552 2.244.552.72 0 1.376-.152 1.968-.456.592-.304 1.088-.76 1.488-1.368l1.752 1.104a5.032 5.032 0 0 1-2.1 2.028c-.904.472-1.932.708-3.084.708zm14.784-12.984c1.616 0 2.9.468 3.852 1.404.952.936 1.428 2.308 1.428 4.116V23H244v-7.056c0-1.232-.296-2.16-.888-2.784-.592-.624-1.44-.936-2.544-.936-1.248 0-2.232.364-2.952 1.092-.72.728-1.08 1.772-1.08 3.132V23h-2.304V5.192h2.304v6.888c.48-.608 1.108-1.08 1.884-1.416.776-.336 1.644-.504 2.604-.504z" fill="#3E396B"/><path d="M83.368 36.008c-.49 0-.861.133-1.112.4-.25.267-.376.661-.376 1.184v.992h2.592v.96h-2.56V47h-1.136v-7.456h-1.504v-.96h1.504v-1.04c0-.768.221-1.376.664-1.824.443-.448 1.07-.672 1.88-.672.32 0 .63.045.928.136.299.09.55.221.752.392l-.384.848c-.33-.277-.747-.416-1.248-.416zm5.936 11.072c-.81 0-1.541-.184-2.192-.552A4.026 4.026 0 0 1 85.576 45c-.373-.65-.56-1.387-.56-2.208 0-.821.187-1.557.56-2.208a3.968 3.968 0 0 1 1.536-1.52c.65-.363 1.381-.544 2.192-.544.81 0 1.541.181 2.192.544.65.363 1.16.87 1.528 1.52.368.65.552 1.387.552 2.208 0 .821-.184 1.557-.552 2.208a3.969 3.969 0 0 1-1.528 1.528c-.65.368-1.381.552-2.192.552zm0-1.008c.597 0 1.133-.136 1.608-.408a2.844 2.844 0 0 0 1.112-1.16c.267-.501.4-1.072.4-1.712 0-.64-.133-1.21-.4-1.712a2.844 2.844 0 0 0-1.112-1.16 3.176 3.176 0 0 0-1.608-.408c-.597 0-1.133.136-1.608.408a2.898 2.898 0 0 0-1.12 1.16c-.272.501-.408 1.072-.408 1.712 0 .64.136 1.21.408 1.712.272.501.645.888 1.12 1.16.475.272 1.01.408 1.608.408zm7.68-5.84a2.753 2.753 0 0 1 1.192-1.28c.528-.288 1.181-.432 1.96-.432v1.104l-.272-.016c-.885 0-1.579.272-2.08.816-.501.544-.752 1.307-.752 2.288V47h-1.136v-8.416h1.088v1.648zm16.784 3.776h-6.24L106.184 47h-1.232l5.12-11.2h1.168l5.12 11.2h-1.248l-1.344-2.992zm-.432-.96l-2.688-6.016-2.688 6.016h5.376zm8.928-4.528c1.056 0 1.896.307 2.52.92.624.613.936 1.507.936 2.68V47h-1.136v-4.768c0-.875-.219-1.541-.656-2-.437-.459-1.061-.688-1.872-.688-.907 0-1.624.27-2.152.808-.528.539-.792 1.283-.792 2.232V47h-1.136v-8.416h1.088v1.552a3.16 3.16 0 0 1 1.288-1.192c.55-.283 1.187-.424 1.912-.424zm14.368.064v7.392c0 1.43-.35 2.488-1.048 3.176-.699.688-1.752 1.032-3.16 1.032a7.06 7.06 0 0 1-2.216-.344c-.699-.23-1.267-.547-1.704-.952l.576-.864c.405.363.899.645 1.48.848a5.525 5.525 0 0 0 1.832.304c1.067 0 1.85-.248 2.352-.744.501-.496.752-1.267.752-2.312v-1.072a3.424 3.424 0 0 1-1.384 1.216 4.28 4.28 0 0 1-1.896.416c-.79 0-1.507-.173-2.152-.52a3.84 3.84 0 0 1-1.52-1.456c-.368-.624-.552-1.33-.552-2.12s.184-1.493.552-2.112a3.814 3.814 0 0 1 1.512-1.44c.64-.341 1.36-.512 2.16-.512.715 0 1.36.144 1.936.432.576.288 1.04.704 1.392 1.248v-1.616h1.088zm-4.304 7.088a3.45 3.45 0 0 0 1.648-.392c.49-.261.872-.627 1.144-1.096.272-.47.408-1.003.408-1.6 0-.597-.136-1.128-.408-1.592a2.86 2.86 0 0 0-1.136-1.088c-.485-.261-1.037-.392-1.656-.392a3.46 3.46 0 0 0-1.64.384 2.79 2.79 0 0 0-1.136 1.088 3.132 3.132 0 0 0-.408 1.6c0 .597.136 1.13.408 1.6.272.47.65.835 1.136 1.096a3.403 3.403 0 0 0 1.64.392zm15.072-7.088V47h-1.088v-1.536c-.299.512-.71.91-1.232 1.192-.523.283-1.12.424-1.792.424-1.099 0-1.965-.307-2.6-.92s-.952-1.512-.952-2.696v-4.88h1.136v4.768c0 .885.219 1.557.656 2.016.437.459 1.061.688 1.872.688.885 0 1.584-.27 2.096-.808.512-.539.768-1.288.768-2.248v-4.416h1.136zm3.184-3.456h1.136V47h-1.136V35.128zm7.248 3.392c1.099 0 1.941.275 2.528.824.587.55.88 1.363.88 2.44V47h-1.088v-1.312a2.605 2.605 0 0 1-1.128 1.024c-.496.245-1.085.368-1.768.368-.939 0-1.685-.224-2.24-.672-.555-.448-.832-1.04-.832-1.776 0-.715.259-1.29.776-1.728.517-.437 1.341-.656 2.472-.656h2.672v-.512c0-.725-.203-1.277-.608-1.656-.405-.379-.997-.568-1.776-.568-.533 0-1.045.088-1.536.264a3.87 3.87 0 0 0-1.264.728l-.512-.848a4.54 4.54 0 0 1 1.536-.84 5.98 5.98 0 0 1 1.888-.296zm-.4 7.664c.64 0 1.19-.147 1.648-.44.459-.293.8-.717 1.024-1.272v-1.376h-2.64c-1.44 0-2.16.501-2.16 1.504 0 .49.187.877.56 1.16.373.283.896.424 1.568.424zm7.984-5.952a2.753 2.753 0 0 1 1.192-1.28c.528-.288 1.181-.432 1.96-.432v1.104l-.272-.016c-.885 0-1.579.272-2.08.816-.501.544-.752 1.307-.752 2.288V47h-1.136v-8.416h1.088v1.648z" fill="#8994C6"/></g></svg>
