<svg fill="none" viewBox="0 0 1469 419" xmlns="http://www.w3.org/2000/svg" xmlns:xlink="http://www.w3.org/1999/xlink"><radialGradient id="a" cx="0" cy="0" gradientTransform="matrix(-79.326381 -128.5105823 121.54819546 -75.02867305 243.002 227.164)" gradientUnits="userSpaceOnUse" r="1"><stop offset="0" stop-color="#7fedfb"/><stop offset="1" stop-color="#0090cc" stop-opacity=".01"/></radialGradient><radialGradient id="b" cx="0" cy="0" gradientTransform="matrix(-92.71444948 -106.02255187 106.02255187 -92.71444948 213.614 207.688)" gradientUnits="userSpaceOnUse" r="1"><stop offset="0" stop-color="#3d4aea"/><stop offset="1" stop-color="#5a00ff" stop-opacity=".01"/></radialGradient><radialGradient id="c" cx="0" cy="0" gradientTransform="matrix(141.46587134 17.64457681 -17.72923394 142.14461221 227.367 207.039)" gradientUnits="userSpaceOnUse" r="1"><stop offset="0" stop-color="#fff"/><stop offset="1" stop-color="#fff" stop-opacity=".01"/></radialGradient><radialGradient id="d" cx="0" cy="0" gradientTransform="matrix(-168.27 0 0 -150.638 181.253 180.322)" gradientUnits="userSpaceOnUse" r="1"><stop offset="0" stop-color="#3f36d3"/><stop offset="1" stop-color="#79fff7"/></radialGradient><path d="m0 0h1469v419h-1469z" fill="#fff"/><path d="m227.783 336.5c65.998 0 119.5-53.502 119.5-119.5s-53.502-119.5-119.5-119.5-119.5 53.502-119.5 119.5 53.502 119.5 119.5 119.5z" fill="#3f36d3"/><path d="m213.614 401.164c96.098 0 174-77.902 174-174 0-96.097-77.902-173.9997-174-173.9997-96.097 0-173.9997 77.9027-173.9997 173.9997 0 96.098 77.9027 174 173.9997 174z" fill="url(#a)"/><path d="m213.614 386.164c87.814 0 159-71.186 159-159 0-87.813-71.186-158.9997-159-158.9997-87.813 0-158.9997 71.1867-158.9997 158.9997 0 87.814 71.1867 159 158.9997 159z" fill="url(#b)"/><path d="m181.46 315.162c42.636 17.226 94.862 6.769 120.54-20.162 20.5-21.5 25.5-32.5 31-49s2.5-41-3-47.5c-7.534-8.903.111 47.5-36 47.5-29.5 0-43.19-44.107-63.466-52.299-42.637-17.226-88.186-4.001-101.737 29.54-13.551 33.54 10.027 74.695 52.663 91.921z" fill="#54fff8" fill-opacity=".179524"/><path d="m215 208c30 12.5 30 33 12.5 54.5-21.255 26.113-93.353 20.455-88.5 22 11.705 3.727 55.722 5.329 92-11 32.419-14.592 57.634-46.428 64.5-57 12.509-19.262 25.5-56 20-62-30.679-33.468-83.362-26.123-100.5-17s-30 58 0 70.5z" fill="#2f44e0" fill-opacity=".446514"/><path d="m116.283 217.133c0-61.668 49.726-111.633 111.089-111.633 61.352 0 111.078 49.965 111.078 111.633s-49.726 111.633-111.089 111.633c-61.352 0-111.078-49.965-111.078-111.633z" fill="url(#c)" opacity=".355"/><path d="m317.997 148.618c14.524 19.473 22.351 43.127 22.309 67.421 0 62.164-50.164 112.579-112.018 112.579-36.301 0-68.576-17.363-89.05-44.276 9.655 1.925 19.477 2.893 29.321 2.891 78.747 0 143.33-61.057 149.443-138.615z" fill="url(#d)" opacity=".476"/><circle cx="198.283" cy="166.47" fill="#fff" opacity=".165" r="41.5"/><circle cx="231.221" cy="216.279" fill="#fff" opacity=".497" r="8.16429"/><circle cx="198.564" cy="265.264" fill="#fff" opacity=".497" r="8.16429"/><circle cx="310.143" cy="240.771" fill="#7ae9f5" opacity=".497" r="5.44286"/><circle cx="291.093" cy="287.036" fill="#82f8ff" opacity=".853" r="8.16429"/><circle cx="202.057" cy="171.97" fill="#fff" opacity=".521787" r="21"/><circle cx="205.614" cy="179.97" fill="#fff" r="8"/><circle cx="231.221" cy="227.164" fill="#fff" opacity=".152" r="13.6071"/><g fill="#464467"><path d="m449.95 219.15h-11.4c-5.6 0-9.85 1.1-12.75 3.3-2.8 2.2-4.2 5-4.2 8.4 0 3.5 1.1 6.25 3.3 8.25s5.4 3 9.6 3c4.8 0 8.55-1.3 11.25-3.9 2.8-2.7 4.2-6.2 4.2-10.5zm-38.25-24v-14.25c5.9-3.4 13.7-5.1 23.4-5.1 19.9 0 29.85 9.65 29.85 28.95v48.3h-14.55v-9c-3.9 6.4-10.75 9.6-20.55 9.6-7.2 0-13-2.05-17.4-6.15-4.3-4.2-6.45-9.5-6.45-15.9 0-7.3 2.75-12.95 8.25-16.95 5.5-4.1 13.2-6.15 23.1-6.15h12.6v-4.35c0-5.2-1.25-9.1-3.75-11.7-2.5-2.7-6.65-4.05-12.45-4.05-8.1 0-15.45 2.25-22.05 6.75z"/><path d="m532.004 177h14.7v76.05h-14.7v-13.05c-4 9.3-11.9 13.95-23.7 13.95-7.5 0-13.45-2.2-17.85-6.6-4.4-4.5-6.6-10.65-6.6-18.45v-51.9h14.85v48.3c0 5.2 1.25 9.2 3.75 12 2.6 2.7 6.15 4.05 10.65 4.05 5.7 0 10.25-2 13.65-6 3.5-4 5.25-9.65 5.25-16.95z"/><path d="m586.421 188.4v41.85c0 7.3 3.5 10.95 10.5 10.95 4.1 0 7.55-1.1 10.35-3.3v13.2c-3.3 1.8-7.35 2.7-12.15 2.7-15.7 0-23.55-7.95-23.55-23.85v-41.55h-11.85v-11.4h11.85v-18.6h14.85v18.6h19.95v11.4z"/><path d="m655.274 254.4c-11.2 0-20-3.65-26.4-10.95s-9.6-16.55-9.6-27.75c0-11.4 3.3-20.85 9.9-28.35 6.6-7.6 15.3-11.4 26.1-11.4 11.6 0 20.55 3.7 26.85 11.1 6.3 7.3 9.45 16.65 9.45 28.05s-3.25 20.8-9.75 28.2c-6.4 7.4-15.25 11.1-26.55 11.1zm-.15-66c-6.5 0-11.55 2.6-15.15 7.8-3.6 5.1-5.4 11.45-5.4 19.05 0 7.5 1.85 13.85 5.55 19.05 3.7 5.1 8.75 7.65 15.15 7.65 6.8 0 11.95-2.5 15.45-7.5 3.6-5 5.4-11.35 5.4-19.05 0-7.9-1.7-14.35-5.1-19.35-3.4-5.1-8.7-7.65-15.9-7.65z"/><path d="m766.623 215.25c.4 6.7 2.4 11.9 6 15.6s8.35 5.55 14.25 5.55c6.3 0 12.35-1.75 18.15-5.25v18.3c-5.9 3.2-13 4.8-21.3 4.8-11.4 0-20.8-3.6-28.2-10.8-7.4-7.3-11.1-16.7-11.1-28.2.2-11.4 3.9-20.8 11.1-28.2 7.2-7.5 17.05-11.25 29.55-11.25 7.7 0 14.35 1.45 19.95 4.35v18.75c-5.3-3.3-11.2-4.95-17.7-4.95-6.1 0-11.05 1.85-14.85 5.55-3.8 3.6-5.75 8.85-5.85 15.75z"/><path d="m852.085 254.25c-11.9 0-21.1-3.55-27.6-10.65-6.5-7.2-9.75-16.4-9.75-27.6 0-11.7 3.4-21.3 10.2-28.8 6.8-7.6 15.85-11.4 27.15-11.4 11.8 0 20.95 3.65 27.45 10.95s9.75 16.6 9.75 27.9c0 11.5-3.3 21-9.9 28.5-6.5 7.4-15.6 11.1-27.3 11.1zm-.15-61.2c-4.8 0-8.4 2.05-10.8 6.15s-3.6 9.4-3.6 15.9 1.2 11.85 3.6 16.05c2.5 4.1 6.2 6.15 11.1 6.15 4.8 0 8.35-2 10.65-6 2.4-4.1 3.6-9.4 3.6-15.9 0-14.9-4.85-22.35-14.55-22.35z"/><path d="m925.493 177v11.85c4.2-8.4 11.35-12.6 21.45-12.6 10.7 0 17.8 4.8 21.3 14.4 1.7-4.5 4.55-8 8.55-10.5 4-2.6 8.7-3.9 14.1-3.9 7.5 0 13.397 2.4 17.697 7.2 4.4 4.7 6.6 11.65 6.6 20.85v48.75h-21.897v-45.15c0-4.3-.85-7.7-2.55-10.2s-4.15-3.75-7.35-3.75c-3.4 0-6.45 1.4-9.15 4.2-2.6 2.7-3.9 7.6-3.9 14.7v40.2h-21.9v-45.15c0-4.3-.85-7.7-2.55-10.2s-4.15-3.75-7.35-3.75c-3.4 0-6.45 1.4-9.15 4.2-2.6 2.7-3.9 7.6-3.9 14.7v40.2h-21.9v-76.05z"/><path d="m1071.5 235.65c4.8 0 8.7-1.8 11.7-5.4 3-3.7 4.5-8.7 4.5-15 0-6.9-1.55-12.1-4.65-15.6-3-3.6-6.85-5.4-11.55-5.4-4.6 0-8.6 1.75-12 5.25s-5.1 8.4-5.1 14.7c0 6.5 1.6 11.7 4.8 15.6s7.3 5.85 12.3 5.85zm-17.1-58.65v11.7c5.3-8.4 12.95-12.6 22.95-12.6 9.8 0 17.65 3.5 23.55 10.5 6 6.9 9 16.3 9 28.2 0 11.3-2.9 20.65-8.7 28.05-5.7 7.4-13.65 11.1-23.85 11.1-10.3 0-17.95-4.05-22.95-12.15v39.3h-21.9v-104.1z"/><path d="m1124.95 253.05v-106.05h21.9v106.05z"/><path d="m1209.6 208.05v-1.8c-.7-8.9-4.6-13.35-11.7-13.35-3.5 0-6.6 1.3-9.3 3.9-2.7 2.5-4.5 6.25-5.4 11.25zm15.75 22.35v18.3c-5.2 3.4-13.15 5.1-23.85 5.1-12.5 0-22.25-3.6-29.25-10.8-6.9-7.3-10.35-16.65-10.35-28.05 0-12.1 3.35-21.55 10.05-28.35 6.8-6.9 15.15-10.35 25.05-10.35 10.2 0 18.25 3 24.15 9 5.9 5.9 8.85 14.75 8.85 26.55 0 2.3-.4 6.25-1.2 11.85h-44.7c1.5 4.2 4.1 7.45 7.8 9.75s8.15 3.45 13.35 3.45c7.7 0 14.4-2.15 20.1-6.45z"/><path d="m1270.98 193.05v34.95c0 2.7.75 4.75 2.25 6.15 1.6 1.4 3.65 2.1 6.15 2.1 4 0 7.55-1 10.65-3v18.15c-3.7 1.6-8.7 2.4-15 2.4-17.3 0-25.95-8.65-25.95-25.95v-34.8h-10.95v-16.05h10.95v-18h21.9v18h17.7v16.05z"/><path d="m1347.45 208.05v-1.8c-.7-8.9-4.6-13.35-11.7-13.35-3.5 0-6.6 1.3-9.3 3.9-2.7 2.5-4.5 6.25-5.4 11.25zm15.75 22.35v18.3c-5.2 3.4-13.15 5.1-23.85 5.1-12.5 0-22.25-3.6-29.25-10.8-6.9-7.3-10.35-16.65-10.35-28.05 0-12.1 3.35-21.55 10.05-28.35 6.8-6.9 15.15-10.35 25.05-10.35 10.2 0 18.25 3 24.15 9 5.9 5.9 8.85 14.75 8.85 26.55 0 2.3-.4 6.25-1.2 11.85h-44.7c1.5 4.2 4.1 7.45 7.8 9.75s8.15 3.45 13.35 3.45c7.7 0 14.4-2.15 20.1-6.45z"/></g><path clip-rule="evenodd" d="m722.55 149.871v126.358h-7v-126.358z" fill="#23263b" fill-rule="evenodd"/></svg>
